<?xml version="1.0" encoding="UTF-8" standalone="no"?>
<!DOCTYPE svg PUBLIC "-//W3C//DTD SVG 1.1//EN" "http://www.w3.org/Graphics/SVG/1.1/DTD/svg11.dtd">
<svg width="100%" height="100%" viewBox="0 0 1080 1080" version="1.1" xmlns="http://www.w3.org/2000/svg" xmlns:xlink="http://www.w3.org/1999/xlink" xml:space="preserve" xmlns:serif="http://www.serif.com/" style="fill-rule:evenodd;clip-rule:evenodd;stroke-linejoin:round;stroke-miterlimit:2;">
    <g transform="matrix(0.994863,0,0,0.994863,20.5,-14.9523)">
        <circle cx="522.182" cy="557.818" r="522.182" style="fill:white;"/>
    </g>
    <g transform="matrix(1.36851,0,0,1.36851,35.7627,504.519)">
        <g id="Letter-J" serif:id="Letter J">
            <g>
                <g transform="matrix(0.818714,-0.0119235,0.0121857,0.836712,268.36,61.242)">
                    <path d="M0,102.87C-81.88,189.31 -191.29,122.08 -191.29,122.08C-248.69,92.12 -259.2,23.45 -261.12,-0.69C-261.42,-4.48 -261.51,-7.17 -261.54,-8.45C-261.55,-8.72 -261.55,-9 -261.55,-9.27C-261.55,-51.859 -230.07,-86.44 -191.29,-86.44C-152.51,-86.44 -121.03,-51.859 -121.03,-9.27C-102.13,130.921 0,102.87 0,102.87" style="fill:rgb(50,222,132);"/>
                </g>
                <g transform="matrix(1.15584,0,0,1.01559,-130.685,-682.006)">
                    <path d="M383.98,598.423C383.98,566.178 360.979,540 332.647,540C304.315,540 281.314,566.178 281.314,598.423L281.314,738.176C281.314,770.42 304.315,796.599 332.647,796.599C360.979,796.599 383.98,770.42 383.98,738.176L383.98,598.423Z"/>
                </g>
            </g>
        </g>
    </g>
    <g id="Letter-X" serif:id="Letter X" transform="matrix(1.36851,0,0,1.36851,10.5333,-143.73)">
        <g transform="matrix(0.919777,0,0,0.919777,685.194,429.928)">
            <path d="M0,151.537C22.335,173.856 22.335,210.126 0,232.445C-22.335,254.78 -58.589,254.78 -80.924,232.445L-156.677,156.692L-232.444,232.445C-254.765,254.78 -291.033,254.78 -313.354,232.445C-335.687,210.126 -335.687,173.856 -313.354,151.537L-237.601,75.769L-313.354,0.016C-335.687,-22.319 -335.687,-58.573 -313.354,-80.908C-291.033,-103.243 -254.765,-103.243 -232.444,-80.908L-156.677,-5.14L-80.924,-80.908C-58.589,-103.243 -22.335,-103.243 0,-80.908C22.335,-58.573 22.335,-22.319 0,0.016L-75.768,75.769L0,151.537Z"/>
        </g>
        <g transform="matrix(1.00906,0,0,1.01073,-5.3123,-5.36334)">
            <path d="M610.762,643.726C610.762,643.726 552.643,580.497 615.505,499.619L692.027,575.74C691.362,578.704 714.915,608.098 685.018,643.113C685.018,643.476 650.158,674.552 610.762,643.726Z" style="fill:rgb(50,222,132);"/>
        </g>
        <g transform="matrix(-1.00906,1.23574e-16,-1.23779e-16,-1.01073,1088.13,1004.51)">
            <path d="M610.762,643.726C610.762,643.726 552.643,580.497 615.505,499.619L692.027,575.74C691.362,578.704 714.915,608.098 685.018,643.113C685.018,643.476 650.158,674.552 610.762,643.726Z" style="fill:rgb(50,222,132);"/>
        </g>
    </g>
</svg>
